<svg width="92" height="28" viewBox="0 0 92 28" fill="none" xmlns="http://www.w3.org/2000/svg">
<path d="M10.254 18.7786C25.13 9.2362 33.4262 7.08637 31.2212 4.87295C29.0161 2.65952 26.0909 0.440723 22.9884 0.0880537C19.886 -0.264616 16.7559 0.448589 14.1114 2.11074C11.4669 3.77289 9.46489 6.28535 8.4336 9.2362C6.0704 9.42987 3.87363 10.5313 2.30312 12.3099C0.732608 14.0886 -0.0898859 16.4065 0.00780431 18.7786C0.105495 21.1507 1.1158 23.3929 2.82723 25.0361C4.53866 26.6792 6.81854 27.5958 9.18964 27.594H35.2073C37.2368 27.583 39.1788 26.7653 40.6061 25.3207C42.0335 23.876 42.8292 21.9228 42.8182 19.8908C42.8072 17.8587 40.6835 15.0672 39.2407 13.6381C37.7979 12.209 32.4455 7.2328 10.254 18.7786Z" fill="#F5F5F5"/>
<path d="M61.163 6.84126C63.7009 6.84126 65.6696 7.47526 67.0692 8.74317C68.4688 9.99243 69.3831 11.7451 69.8124 14.0013L66.0055 14.197C65.7629 12.8918 65.2404 11.8663 64.4379 11.1205C63.6355 10.3747 62.5439 10.0018 61.163 10.0018C60.0433 10.0018 59.0729 10.3001 58.2518 10.8968C57.4307 11.4934 56.7963 12.3325 56.3484 13.4139C55.9005 14.4954 55.6766 15.7726 55.6766 17.2456C55.6766 18.7373 55.9005 20.0238 56.3484 21.1053C56.8149 22.1681 57.4587 22.9885 58.2798 23.5665C59.1009 24.1445 60.0526 24.4335 61.135 24.4335C62.6092 24.4335 63.7476 24.0327 64.55 23.2309C65.3711 22.4105 65.8935 21.2917 66.1175 19.8747L69.9243 20.0704C69.663 21.618 69.1592 22.9605 68.4128 24.0979C67.6663 25.2166 66.6773 26.0837 65.4457 26.699C64.2327 27.2957 62.7958 27.594 61.135 27.594C59.3249 27.594 57.7293 27.1838 56.3484 26.3634C54.9675 25.5243 53.8851 24.3403 53.1013 22.8113C52.3176 21.2638 51.9257 19.4085 51.9257 17.2456C51.9257 15.12 52.3082 13.2834 53.0733 11.7358C53.8384 10.1695 54.9115 8.96695 56.2924 8.12789C57.6733 7.27019 59.2968 6.84126 61.163 6.84126Z" fill="#F5F5F5"/>
<path d="M76.6647 23.9861H86.0979V27.1465H73.0258V7.2888H76.6647V23.9861Z" fill="#F5F5F5"/>
<path d="M92 27.1465H88.361V7.2888H92V27.1465Z" fill="#F5F5F5"/>
</svg>
